<svg xmlns="http://www.w3.org/2000/svg" viewBox="0 0 960 620" width="960" height="620" font-family="system-ui, sans-serif">
<rect x="0" y="0" width="960" height="620" fill="#ffffff"/>
<text x="480" y="26" text-anchor="middle" font-size="16" font-weight="700" fill="#111">Chunk-flush timeline</text>
<text x="60" y="60" font-size="13" font-weight="700" fill="#111">A. Normal flush &#8212; buffer reaches chunkSec, flush waits for the next silence</text>
<line x1="60" y1="175" x2="924.0" y2="175" stroke="#888" stroke-width="1.5"/>
<line x1="60.0" y1="171" x2="60.0" y2="179" stroke="#888" stroke-width="1"/>
<text x="60.0" y="231" text-anchor="middle" font-size="10" fill="#666">0s</text>
<line x1="180.0" y1="171" x2="180.0" y2="179" stroke="#888" stroke-width="1"/>
<text x="180.0" y="231" text-anchor="middle" font-size="10" fill="#666">1s</text>
<line x1="300.0" y1="171" x2="300.0" y2="179" stroke="#888" stroke-width="1"/>
<text x="300.0" y="231" text-anchor="middle" font-size="10" fill="#666">2s</text>
<line x1="420.0" y1="171" x2="420.0" y2="179" stroke="#888" stroke-width="1"/>
<text x="420.0" y="231" text-anchor="middle" font-size="10" fill="#666">3s</text>
<line x1="540.0" y1="171" x2="540.0" y2="179" stroke="#888" stroke-width="1"/>
<text x="540.0" y="231" text-anchor="middle" font-size="10" fill="#666">4s</text>
<line x1="660.0" y1="171" x2="660.0" y2="179" stroke="#888" stroke-width="1"/>
<text x="660.0" y="231" text-anchor="middle" font-size="10" fill="#666">5s</text>
<line x1="780.0" y1="171" x2="780.0" y2="179" stroke="#888" stroke-width="1"/>
<text x="780.0" y="231" text-anchor="middle" font-size="10" fill="#666">6s</text>
<line x1="900.0" y1="171" x2="900.0" y2="179" stroke="#888" stroke-width="1"/>
<text x="900.0" y="231" text-anchor="middle" font-size="10" fill="#666">7s</text>
<rect x="96.0" y="175.0" width="4" height="0.0" rx="1" fill="#2563eb"/>
<rect x="104.0" y="170.9" width="4" height="8.2" rx="1" fill="#2563eb"/>
<rect x="112.0" y="169.0" width="4" height="11.9" rx="1" fill="#2563eb"/>
<rect x="120.0" y="164.8" width="4" height="20.5" rx="1" fill="#2563eb"/>
<rect x="128.0" y="159.4" width="4" height="31.3" rx="1" fill="#2563eb"/>
<rect x="136.0" y="163.9" width="4" height="22.2" rx="1" fill="#2563eb"/>
<rect x="144.0" y="149.8" width="4" height="50.4" rx="1" fill="#2563eb"/>
<rect x="152.0" y="157.6" width="4" height="34.8" rx="1" fill="#2563eb"/>
<rect x="160.0" y="144.9" width="4" height="60.3" rx="1" fill="#2563eb"/>
<rect x="168.0" y="142.6" width="4" height="64.8" rx="1" fill="#2563eb"/>
<rect x="176.0" y="147.6" width="4" height="54.8" rx="1" fill="#2563eb"/>
<rect x="184.0" y="133.3" width="4" height="83.3" rx="1" fill="#2563eb"/>
<rect x="192.0" y="155.5" width="4" height="39.0" rx="1" fill="#2563eb"/>
<rect x="200.0" y="134.8" width="4" height="80.4" rx="1" fill="#2563eb"/>
<rect x="208.0" y="143.0" width="4" height="64.1" rx="1" fill="#2563eb"/>
<rect x="216.0" y="142.9" width="4" height="64.1" rx="1" fill="#2563eb"/>
<rect x="224.0" y="134.8" width="4" height="80.4" rx="1" fill="#2563eb"/>
<rect x="232.0" y="155.5" width="4" height="39.1" rx="1" fill="#2563eb"/>
<rect x="240.0" y="133.3" width="4" height="83.3" rx="1" fill="#2563eb"/>
<rect x="248.0" y="147.6" width="4" height="54.7" rx="1" fill="#2563eb"/>
<rect x="256.0" y="139.0" width="4" height="72.0" rx="1" fill="#2563eb"/>
<rect x="264.0" y="141.1" width="4" height="67.8" rx="1" fill="#2563eb"/>
<rect x="272.0" y="155.1" width="4" height="39.8" rx="1" fill="#2563eb"/>
<rect x="280.0" y="145.6" width="4" height="58.7" rx="1" fill="#2563eb"/>
<rect x="288.0" y="161.7" width="4" height="26.6" rx="1" fill="#2563eb"/>
<rect x="296.0" y="155.5" width="4" height="39.1" rx="1" fill="#2563eb"/>
<rect x="304.0" y="161.4" width="4" height="27.3" rx="1" fill="#2563eb"/>
<rect x="312.0" y="166.1" width="4" height="17.9" rx="1" fill="#2563eb"/>
<rect x="320.0" y="166.8" width="4" height="16.4" rx="1" fill="#2563eb"/>
<rect x="328.0" y="173.3" width="4" height="3.4" rx="1" fill="#2563eb"/>
<rect x="372.0" y="175.0" width="4" height="0.0" rx="1" fill="#2563eb"/>
<rect x="380.0" y="170.4" width="4" height="9.1" rx="1" fill="#2563eb"/>
<rect x="388.0" y="168.4" width="4" height="13.2" rx="1" fill="#2563eb"/>
<rect x="396.0" y="163.6" width="4" height="22.8" rx="1" fill="#2563eb"/>
<rect x="404.0" y="157.6" width="4" height="34.7" rx="1" fill="#2563eb"/>
<rect x="412.0" y="162.7" width="4" height="24.7" rx="1" fill="#2563eb"/>
<rect x="420.0" y="147.0" width="4" height="56.0" rx="1" fill="#2563eb"/>
<rect x="428.0" y="155.7" width="4" height="38.6" rx="1" fill="#2563eb"/>
<rect x="436.0" y="141.5" width="4" height="67.0" rx="1" fill="#2563eb"/>
<rect x="444.0" y="139.0" width="4" height="72.0" rx="1" fill="#2563eb"/>
<rect x="452.0" y="147.6" width="4" height="54.8" rx="1" fill="#2563eb"/>
<rect x="460.0" y="133.3" width="4" height="83.3" rx="1" fill="#2563eb"/>
<rect x="468.0" y="155.5" width="4" height="39.0" rx="1" fill="#2563eb"/>
<rect x="476.0" y="134.8" width="4" height="80.4" rx="1" fill="#2563eb"/>
<rect x="484.0" y="143.0" width="4" height="64.1" rx="1" fill="#2563eb"/>
<rect x="492.0" y="142.9" width="4" height="64.1" rx="1" fill="#2563eb"/>
<rect x="500.0" y="134.8" width="4" height="80.4" rx="1" fill="#2563eb"/>
<rect x="508.0" y="155.5" width="4" height="39.1" rx="1" fill="#2563eb"/>
<rect x="516.0" y="133.3" width="4" height="83.3" rx="1" fill="#2563eb"/>
<rect x="524.0" y="150.7" width="4" height="48.7" rx="1" fill="#2563eb"/>
<rect x="532.0" y="147.0" width="4" height="56.0" rx="1" fill="#2563eb"/>
<rect x="540.0" y="149.9" width="4" height="50.2" rx="1" fill="#2563eb"/>
<rect x="548.0" y="161.2" width="4" height="27.6" rx="1" fill="#2563eb"/>
<rect x="556.0" y="156.4" width="4" height="37.3" rx="1" fill="#2563eb"/>
<rect x="564.0" y="167.6" width="4" height="14.8" rx="1" fill="#2563eb"/>
<rect x="572.0" y="166.3" width="4" height="17.4" rx="1" fill="#2563eb"/>
<rect x="580.0" y="171.2" width="4" height="7.6" rx="1" fill="#2563eb"/>
<rect x="588.0" y="175.0" width="4" height="0.0" rx="1" fill="#2563eb"/>
<line x1="540.0" y1="99.0" x2="540.0" y2="221.0" stroke="#6b7280" stroke-width="2" stroke-dasharray="6 4"/>
<text x="540.0" y="80.0" text-anchor="middle" font-size="10" fill="#444">buffer reaches chunkSec</text>
<text x="540.0" y="92.0" text-anchor="middle" font-size="9.5" fill="#666">(still voiced &#8594; keep buffering)</text>
<line x1="660.0" y1="85.0" x2="660.0" y2="235.0" stroke="#b91c1c" stroke-width="2"/>
<text x="660.0" y="249.0" text-anchor="middle" font-size="10.5" font-weight="700" fill="#b91c1c">flush</text>
<text x="660.0" y="263.0" text-anchor="middle" font-size="9.5" fill="#666">isVoiced&#8594;false after hangoverMs, emit('chunk')</text>
<rect x="612.0" y="165" width="48.0" height="20" fill="#f59e0b" fill-opacity="0.35" stroke="#b45309" stroke-width="1.5"/>
<text x="636.0" y="279.0" text-anchor="middle" font-size="9.5" fill="#b45309">overlap kept</text>
<rect x="696.0" y="175.0" width="4" height="0.0" rx="1" fill="#93c5fd"/>
<rect x="704.0" y="166.8" width="4" height="16.4" rx="1" fill="#93c5fd"/>
<rect x="712.0" y="163.1" width="4" height="23.8" rx="1" fill="#93c5fd"/>
<rect x="720.0" y="154.5" width="4" height="41.0" rx="1" fill="#93c5fd"/>
<rect x="728.0" y="143.7" width="4" height="62.5" rx="1" fill="#93c5fd"/>
<rect x="736.0" y="152.8" width="4" height="44.4" rx="1" fill="#93c5fd"/>
<rect x="744.0" y="133.0" width="4" height="83.9" rx="1" fill="#93c5fd"/>
<rect x="752.0" y="150.2" width="4" height="49.7" rx="1" fill="#93c5fd"/>
<rect x="760.0" y="137.3" width="4" height="75.3" rx="1" fill="#93c5fd"/>
<rect x="768.0" y="139.0" width="4" height="72.0" rx="1" fill="#93c5fd"/>
<rect x="776.0" y="147.6" width="4" height="54.8" rx="1" fill="#93c5fd"/>
<rect x="784.0" y="141.7" width="4" height="66.7" rx="1" fill="#93c5fd"/>
<rect x="792.0" y="163.3" width="4" height="23.4" rx="1" fill="#93c5fd"/>
<rect x="800.0" y="158.9" width="4" height="32.2" rx="1" fill="#93c5fd"/>
<rect x="808.0" y="168.6" width="4" height="12.8" rx="1" fill="#93c5fd"/>
<rect x="816.0" y="175.0" width="4" height="0.0" rx="1" fill="#93c5fd"/>
<text x="888.0" y="180.0" text-anchor="middle" font-size="14" fill="#999">&#8230;</text>
<text x="60" y="321" font-size="13" font-weight="700" fill="#111">B. Hard flush &#8212; continuous speech exceeds chunkSec &#215; 1.5</text>
<line x1="60" y1="436" x2="924.0" y2="436" stroke="#888" stroke-width="1.5"/>
<line x1="60.0" y1="432" x2="60.0" y2="440" stroke="#888" stroke-width="1"/>
<text x="60.0" y="492" text-anchor="middle" font-size="10" fill="#666">0s</text>
<line x1="180.0" y1="432" x2="180.0" y2="440" stroke="#888" stroke-width="1"/>
<text x="180.0" y="492" text-anchor="middle" font-size="10" fill="#666">1s</text>
<line x1="300.0" y1="432" x2="300.0" y2="440" stroke="#888" stroke-width="1"/>
<text x="300.0" y="492" text-anchor="middle" font-size="10" fill="#666">2s</text>
<line x1="420.0" y1="432" x2="420.0" y2="440" stroke="#888" stroke-width="1"/>
<text x="420.0" y="492" text-anchor="middle" font-size="10" fill="#666">3s</text>
<line x1="540.0" y1="432" x2="540.0" y2="440" stroke="#888" stroke-width="1"/>
<text x="540.0" y="492" text-anchor="middle" font-size="10" fill="#666">4s</text>
<line x1="660.0" y1="432" x2="660.0" y2="440" stroke="#888" stroke-width="1"/>
<text x="660.0" y="492" text-anchor="middle" font-size="10" fill="#666">5s</text>
<line x1="780.0" y1="432" x2="780.0" y2="440" stroke="#888" stroke-width="1"/>
<text x="780.0" y="492" text-anchor="middle" font-size="10" fill="#666">6s</text>
<line x1="900.0" y1="432" x2="900.0" y2="440" stroke="#888" stroke-width="1"/>
<text x="900.0" y="492" text-anchor="middle" font-size="10" fill="#666">7s</text>
<rect x="84.0" y="436.0" width="4" height="0.0" rx="1" fill="#2563eb"/>
<rect x="92.0" y="434.8" width="4" height="2.3" rx="1" fill="#2563eb"/>
<rect x="100.0" y="434.3" width="4" height="3.4" rx="1" fill="#2563eb"/>
<rect x="108.0" y="433.1" width="4" height="5.9" rx="1" fill="#2563eb"/>
<rect x="116.0" y="431.5" width="4" height="8.9" rx="1" fill="#2563eb"/>
<rect x="124.0" y="432.8" width="4" height="6.3" rx="1" fill="#2563eb"/>
<rect x="132.0" y="428.8" width="4" height="14.4" rx="1" fill="#2563eb"/>
<rect x="140.0" y="431.0" width="4" height="9.9" rx="1" fill="#2563eb"/>
<rect x="148.0" y="427.4" width="4" height="17.2" rx="1" fill="#2563eb"/>
<rect x="156.0" y="426.7" width="4" height="18.5" rx="1" fill="#2563eb"/>
<rect x="164.0" y="428.2" width="4" height="15.7" rx="1" fill="#2563eb"/>
<rect x="172.0" y="422.9" width="4" height="26.2" rx="1" fill="#2563eb"/>
<rect x="180.0" y="429.3" width="4" height="13.4" rx="1" fill="#2563eb"/>
<rect x="188.0" y="421.1" width="4" height="29.9" rx="1" fill="#2563eb"/>
<rect x="196.0" y="423.2" width="4" height="25.6" rx="1" fill="#2563eb"/>
<rect x="204.0" y="422.3" width="4" height="27.5" rx="1" fill="#2563eb"/>
<rect x="212.0" y="417.6" width="4" height="36.8" rx="1" fill="#2563eb"/>
<rect x="220.0" y="426.5" width="4" height="19.0" rx="1" fill="#2563eb"/>
<rect x="228.0" y="414.6" width="4" height="42.9" rx="1" fill="#2563eb"/>
<rect x="236.0" y="421.1" width="4" height="29.7" rx="1" fill="#2563eb"/>
<rect x="244.0" y="415.4" width="4" height="41.2" rx="1" fill="#2563eb"/>
<rect x="252.0" y="413.4" width="4" height="45.2" rx="1" fill="#2563eb"/>
<rect x="260.0" y="420.4" width="4" height="31.3" rx="1" fill="#2563eb"/>
<rect x="268.0" y="408.4" width="4" height="55.2" rx="1" fill="#2563eb"/>
<rect x="276.0" y="420.8" width="4" height="30.4" rx="1" fill="#2563eb"/>
<rect x="284.0" y="408.1" width="4" height="55.8" rx="1" fill="#2563eb"/>
<rect x="292.0" y="410.7" width="4" height="50.7" rx="1" fill="#2563eb"/>
<rect x="300.0" y="413.0" width="4" height="46.0" rx="1" fill="#2563eb"/>
<rect x="308.0" y="403.1" width="4" height="65.7" rx="1" fill="#2563eb"/>
<rect x="316.0" y="422.1" width="4" height="27.9" rx="1" fill="#2563eb"/>
<rect x="324.0" y="400.8" width="4" height="70.4" rx="1" fill="#2563eb"/>
<rect x="332.0" y="409.6" width="4" height="52.7" rx="1" fill="#2563eb"/>
<rect x="340.0" y="404.8" width="4" height="62.4" rx="1" fill="#2563eb"/>
<rect x="348.0" y="399.2" width="4" height="73.6" rx="1" fill="#2563eb"/>
<rect x="356.0" y="414.4" width="4" height="43.2" rx="1" fill="#2563eb"/>
<rect x="364.0" y="394.0" width="4" height="83.9" rx="1" fill="#2563eb"/>
<rect x="372.0" y="411.2" width="4" height="49.6" rx="1" fill="#2563eb"/>
<rect x="380.0" y="398.3" width="4" height="75.3" rx="1" fill="#2563eb"/>
<rect x="388.0" y="400.0" width="4" height="72.0" rx="1" fill="#2563eb"/>
<rect x="396.0" y="408.6" width="4" height="54.8" rx="1" fill="#2563eb"/>
<rect x="404.0" y="394.3" width="4" height="83.3" rx="1" fill="#2563eb"/>
<rect x="412.0" y="416.5" width="4" height="39.0" rx="1" fill="#2563eb"/>
<rect x="420.0" y="395.8" width="4" height="80.4" rx="1" fill="#2563eb"/>
<rect x="428.0" y="404.0" width="4" height="64.0" rx="1" fill="#2563eb"/>
<rect x="436.0" y="403.9" width="4" height="64.2" rx="1" fill="#2563eb"/>
<rect x="444.0" y="395.8" width="4" height="80.4" rx="1" fill="#2563eb"/>
<rect x="452.0" y="416.4" width="4" height="39.1" rx="1" fill="#2563eb"/>
<rect x="460.0" y="394.3" width="4" height="83.3" rx="1" fill="#2563eb"/>
<rect x="468.0" y="408.7" width="4" height="54.7" rx="1" fill="#2563eb"/>
<rect x="476.0" y="400.0" width="4" height="72.1" rx="1" fill="#2563eb"/>
<rect x="484.0" y="398.4" width="4" height="75.3" rx="1" fill="#2563eb"/>
<rect x="492.0" y="411.1" width="4" height="49.8" rx="1" fill="#2563eb"/>
<rect x="500.0" y="394.0" width="4" height="83.9" rx="1" fill="#2563eb"/>
<rect x="508.0" y="413.8" width="4" height="44.4" rx="1" fill="#2563eb"/>
<rect x="516.0" y="396.9" width="4" height="78.2" rx="1" fill="#2563eb"/>
<rect x="524.0" y="401.9" width="4" height="68.2" rx="1" fill="#2563eb"/>
<rect x="532.0" y="406.2" width="4" height="59.7" rx="1" fill="#2563eb"/>
<rect x="540.0" y="394.9" width="4" height="82.1" rx="1" fill="#2563eb"/>
<rect x="548.0" y="419.2" width="4" height="33.7" rx="1" fill="#2563eb"/>
<rect x="556.0" y="394.9" width="4" height="82.2" rx="1" fill="#2563eb"/>
<rect x="564.0" y="406.2" width="4" height="59.5" rx="1" fill="#2563eb"/>
<rect x="572.0" y="401.8" width="4" height="68.3" rx="1" fill="#2563eb"/>
<rect x="580.0" y="397.0" width="4" height="78.1" rx="1" fill="#2563eb"/>
<rect x="588.0" y="413.7" width="4" height="44.5" rx="1" fill="#2563eb"/>
<rect x="596.0" y="394.0" width="4" height="83.9" rx="1" fill="#2563eb"/>
<rect x="604.0" y="411.2" width="4" height="49.6" rx="1" fill="#2563eb"/>
<rect x="612.0" y="398.3" width="4" height="75.4" rx="1" fill="#2563eb"/>
<rect x="620.0" y="400.0" width="4" height="71.9" rx="1" fill="#2563eb"/>
<rect x="628.0" y="408.6" width="4" height="54.9" rx="1" fill="#2563eb"/>
<rect x="636.0" y="394.3" width="4" height="83.3" rx="1" fill="#2563eb"/>
<rect x="644.0" y="416.5" width="4" height="38.9" rx="1" fill="#2563eb"/>
<rect x="652.0" y="396.9" width="4" height="78.2" rx="1" fill="#2563eb"/>
<rect x="660.0" y="405.8" width="4" height="60.4" rx="1" fill="#2563eb"/>
<rect x="668.0" y="406.7" width="4" height="58.7" rx="1" fill="#2563eb"/>
<rect x="676.0" y="400.4" width="4" height="71.2" rx="1" fill="#2563eb"/>
<rect x="684.0" y="419.2" width="4" height="33.6" rx="1" fill="#2563eb"/>
<rect x="692.0" y="401.5" width="4" height="69.1" rx="1" fill="#2563eb"/>
<rect x="700.0" y="414.1" width="4" height="43.7" rx="1" fill="#2563eb"/>
<rect x="708.0" y="408.2" width="4" height="55.6" rx="1" fill="#2563eb"/>
<rect x="716.0" y="408.1" width="4" height="55.9" rx="1" fill="#2563eb"/>
<rect x="724.0" y="418.2" width="4" height="35.6" rx="1" fill="#2563eb"/>
<rect x="732.0" y="407.2" width="4" height="57.5" rx="1" fill="#2563eb"/>
<rect x="740.0" y="421.4" width="4" height="29.1" rx="1" fill="#2563eb"/>
<rect x="748.0" y="411.4" width="4" height="49.1" rx="1" fill="#2563eb"/>
<rect x="756.0" y="415.6" width="4" height="40.9" rx="1" fill="#2563eb"/>
<rect x="764.0" y="418.9" width="4" height="34.1" rx="1" fill="#2563eb"/>
<rect x="772.0" y="413.7" width="4" height="44.6" rx="1" fill="#2563eb"/>
<rect x="780.0" y="427.3" width="4" height="17.3" rx="1" fill="#2563eb"/>
<rect x="788.0" y="416.0" width="4" height="39.9" rx="1" fill="#2563eb"/>
<rect x="796.0" y="422.4" width="4" height="27.2" rx="1" fill="#2563eb"/>
<rect x="804.0" y="421.4" width="4" height="29.3" rx="1" fill="#2563eb"/>
<rect x="812.0" y="420.4" width="4" height="31.2" rx="1" fill="#2563eb"/>
<rect x="820.0" y="427.7" width="4" height="16.6" rx="1" fill="#2563eb"/>
<rect x="828.0" y="421.6" width="4" height="28.8" rx="1" fill="#2563eb"/>
<rect x="836.0" y="428.2" width="4" height="15.6" rx="1" fill="#2563eb"/>
<rect x="844.0" y="425.2" width="4" height="21.5" rx="1" fill="#2563eb"/>
<rect x="852.0" y="426.8" width="4" height="18.5" rx="1" fill="#2563eb"/>
<rect x="860.0" y="429.7" width="4" height="12.5" rx="1" fill="#2563eb"/>
<rect x="868.0" y="427.7" width="4" height="16.7" rx="1" fill="#2563eb"/>
<rect x="876.0" y="432.7" width="4" height="6.7" rx="1" fill="#2563eb"/>
<rect x="884.0" y="430.3" width="4" height="11.5" rx="1" fill="#2563eb"/>
<rect x="892.0" y="432.3" width="4" height="7.3" rx="1" fill="#2563eb"/>
<rect x="900.0" y="433.2" width="4" height="5.5" rx="1" fill="#2563eb"/>
<rect x="908.0" y="433.7" width="4" height="4.6" rx="1" fill="#2563eb"/>
<rect x="916.0" y="435.4" width="4" height="1.1" rx="1" fill="#2563eb"/>
<rect x="924.0" y="436.0" width="4" height="0.0" rx="1" fill="#2563eb"/>
<line x1="540.0" y1="360.0" x2="540.0" y2="482.0" stroke="#6b7280" stroke-width="2" stroke-dasharray="6 4"/>
<text x="540.0" y="341.0" text-anchor="middle" font-size="10" fill="#444">buffer reaches chunkSec</text>
<text x="540.0" y="353.0" text-anchor="middle" font-size="9.5" fill="#666">(still voiced &#8594; keep buffering)</text>
<line x1="780.0" y1="346.0" x2="780.0" y2="496.0" stroke="#b91c1c" stroke-width="2"/>
<text x="780.0" y="510.0" text-anchor="middle" font-size="10.5" font-weight="700" fill="#b91c1c">hard flush</text>
<text x="780.0" y="524.0" text-anchor="middle" font-size="9.5" fill="#666">forced even though still voiced</text>
<rect x="732.0" y="426" width="48.0" height="20" fill="#f59e0b" fill-opacity="0.35" stroke="#b45309" stroke-width="1.5"/>
<text x="756.0" y="540.0" text-anchor="middle" font-size="9.5" fill="#b45309">overlap kept</text>
<text x="888.0" y="441.0" text-anchor="middle" font-size="14" fill="#999">&#8230;</text>
<rect x="60" y="583" width="14" height="14" fill="#f59e0b" fill-opacity="0.35" stroke="#b45309" stroke-width="1.5"/>
<text x="80" y="594" font-size="11" fill="#444">shaded band = audio retained across the flush (chunkOverlapSec), so words at the boundary aren't cut</text>
</svg>